<svg fill="none" height="82" viewBox="0 0 258 82" width="258" xmlns="http://www.w3.org/2000/svg"><g fill="#1a2038"><path d="m121.612 22h6.311v37.2028h-6.837l-14.776-25.4573v25.4573h-6.31v-37.2028h6.836l14.776 25.4573z"/><path d="m137.787 49.158c.35.815.859 1.5413 1.525 2.1791.736.744 1.56 1.3109 2.471 1.7007.912.3543 1.876.5314 2.892.5314 1.438 0 2.717-.3366 3.839-1.0098l6.573 2.6574c-1.262 1.4881-2.787 2.6573-4.575 3.5077-1.788.8149-3.733 1.2224-5.837 1.2224-1.928 0-3.733-.3544-5.416-1.063-1.683-.744-3.155-1.7538-4.417-3.0294-1.262-1.2755-2.261-2.7636-2.997-4.4643-.702-1.7007-1.052-3.5077-1.052-5.421 0-1.9487.35-3.7734 1.052-5.4741.736-1.7007 1.735-3.1888 2.997-4.4643 1.262-1.2756 2.734-2.2676 4.417-2.9763 1.683-.744 3.488-1.116 5.416-1.116s3.734.372 5.417 1.116c1.682.7087 3.155 1.7007 4.417 2.9763 1.262 1.2755 2.243 2.7636 2.944 4.4643.737 1.7007 1.105 3.5254 1.105 5.4741 0 1.1338-.123 2.1968-.368 3.1888zm6.888-10.8419c-2.033 0-3.821.744-5.363 2.2322-.666.6731-1.175 1.4172-1.525 2.2321h13.777c-.351-.8149-.859-1.559-1.525-2.2321-1.472-1.4882-3.26-2.2322-5.364-2.2322z"/><path d="m188.445 32.6294v26.6265h-6.31v-13.2867c0-2.1258-.737-3.9328-2.209-5.4209-1.472-1.4882-3.26-2.2322-5.364-2.2322-1.016 0-1.998.1949-2.944.5846-.912.3897-1.718.9389-2.419 1.6476-1.473 1.4881-2.209 3.2951-2.209 5.4209 0 2.0905.736 3.8798 2.209 5.3679.701.744 1.507 1.3109 2.419 1.7007.946.3543 1.928.5314 2.944.5314 1.052 0 1.999-.1771 2.84-.5314l2.261 5.6867c-1.613.8149-3.488 1.2224-5.627 1.2224-1.928 0-3.716-.3544-5.363-1.063-1.613-.744-3.015-1.7538-4.207-3.0294-1.192-1.2755-2.121-2.7636-2.787-4.4643s-.999-3.5077-.999-5.421c0-1.9487.333-3.7734.999-5.4741s1.595-3.1888 2.787-4.4643c1.192-1.2756 2.594-2.2676 4.207-2.9763 1.647-.744 3.435-1.116 5.363-1.116 1.718 0 3.243.2657 4.575.7972 1.333.5314 2.507 1.2046 3.524 2.0195v-2.1258z"/><path d="m198.436 34.7021c.982-.8149 2.086-1.4881 3.313-2.0196 1.262-.5315 2.682-.7972 4.259-.7972v6.3776c-2.103 0-3.891.7441-5.363 2.2322-1.473 1.559-2.209 3.366-2.209 5.421v13.3398h-6.31v-26.6265h6.31z"/><path d="m223.326 31.9916c1.929 0 3.699.372 5.312 1.1161 1.647.7086 3.067 1.7007 4.259 2.9762s2.121 2.7637 2.787 4.4644.999 3.5254.999 5.4741c0 1.9133-.333 3.7203-.999 5.421s-1.595 3.1888-2.787 4.4643-2.612 2.2853-4.259 3.0294c-1.613.7086-3.383 1.0629-5.312 1.0629-2.068 0-3.943-.4075-5.626-1.2224l2.261-5.6867c.841.3543 1.788.5315 2.84.5315 2.138 0 3.926-.7441 5.363-2.2322 1.473-1.4881 2.209-3.2774 2.209-5.3678 0-2.1259-.736-3.9329-2.209-5.421-1.472-1.4881-3.26-2.2322-5.363-2.2322-2.034 0-3.822.7441-5.364 2.2322-1.472 1.4881-2.209 3.2951-2.209 5.421v13.2867h-6.31v-37.256h6.31v12.7553c1.017-.8149 2.191-1.4881 3.524-2.0196 1.332-.5315 2.857-.7972 4.574-.7972z"/><path d="m249.008 42.7804c.421.1063 1.122.3543 2.103.7441.982.3897 1.981.9389 2.998 1.6475 1.051.6732 1.963 1.5236 2.734 2.5511s1.157 2.2499 1.157 3.6671c0 1.2401-.21 2.3739-.631 3.4014-.386 1.0275-.964 1.931-1.735 2.7105-.772.7795-1.718 1.3818-2.84 1.807s-2.384.6378-3.786.6378c-2.138 0-4.137-.3898-5.995-1.1693-1.823-.7795-3.295-1.7361-4.417-2.8699l4.365-4.4112c.911 1.0984 1.875 1.807 2.892 2.1259 1.052.3189 1.928.4783 2.629.4783 1.087 0 1.893-.2126 2.419-.6378.526-.4251.789-.9389.789-1.5412 0-.4252-.175-.7972-.526-1.1161s-.771-.5846-1.262-.7972c-.456-.2126-.929-.372-1.42-.4783-.491-.1418-.894-.2658-1.209-.3721-.421-.1417-1.14-.3897-2.156-.744-.982-.3543-1.998-.8681-3.05-1.5413-1.017-.6732-1.911-1.5235-2.682-2.551s-1.157-2.2676-1.157-3.7203c0-1.4881.246-2.7636.736-3.8266.526-1.0983 1.21-2.0018 2.051-2.7105.841-.7086 1.806-1.2223 2.892-1.5412 1.087-.3543 2.209-.5315 3.366-.5315 1.788 0 3.295.2126 4.522.6378 1.262.4251 2.296.8858 3.102 1.3818.912.6023 1.683 1.2755 2.314 2.0196l-4.417 4.4643c-.701-.9212-1.472-1.5944-2.314-2.0196-.841-.4252-1.735-.6377-2.681-.6377-.737 0-1.473.1771-2.209.5314-.701.3543-1.052.9212-1.052 1.7007 0 .4252.158.7972.474 1.1161.315.2835.701.5315 1.156.7441.456.1771.929.3366 1.42.4783.526.1417.999.2657 1.42.372z"/></g><path clip-rule="evenodd" d="m78.698 12.3h-11.1292c-2.2065 0-4.3647 1.7715-4.795 3.9341l-3.8447 19.2745c-.4302 2.1648-1.7325 2.3972-2.8875.5222l-12.5281-20.3167c-1.1596-1.8795-3.9114-3.4141-6.1179-3.4141h-21.315c-1.7878 0-3.2419 1.4517-3.2419 3.2439 0 1.7876 1.4541 3.2416 3.2419 3.2416h11.5088c1.79 0 3.2419 1.4516 3.2419 3.2415 0 1.7876-1.4519 3.2439-3.2419 3.2439h-4.9307l-.0092.046h-5.101c-1.79 0-3.2442 1.4517-3.2442 3.2415 0 1.7876 1.4542 3.2416 3.2442 3.2416h4.3578c1.7901 0 3.2419 1.4517 3.2419 3.2415 0 1.7899-1.4518 3.2439-3.2419 3.2439h-18.66442c-1.79005 0-3.24188 1.4517-3.24188 3.2438 0 1.7876 1.45183 3.2416 3.24188 3.2416h27.05102c1.7877 0 3.2395 1.454 3.2395 3.2415 0 1.7899-1.4518 3.2439-3.2395 3.2439h-18.4229c-1.79 0-3.24185 1.4517-3.24185 3.2415 0 1.7899 1.45185 3.2439 3.24185 3.2439h10.0363c1.7901 0 3.2419 1.4517 3.2419 3.2439 0 1.7875-1.4518 3.2415-3.2419 3.2415h-7.3581c-1.7923 0-3.2419 1.454-3.2419 3.2416 0 1.7898 1.4496 3.2438 3.2419 3.2438h6.493c.2991 0 .5821-.0529.8559-.1311h6.8381c2.2065 0 4.3647-1.7692 4.7949-3.9318l3.8448-19.2744c.4325-2.1649 1.7325-2.3973 2.8921-.52l12.5235 20.3144c1.1596 1.8773 3.9114 3.4118 6.1179 3.4118h8.1312c2.2065 0 4.367-1.7692 4.7995-3.9295l10.0846-50.42c.4326-2.1603-1.0192-3.9318-3.2257-3.9318z" fill="#06f" fill-rule="evenodd"/><path clip-rule="evenodd" d="m4.30942 31.8h3.81785c1.78933 0 3.24053-1.454 3.24053-3.2416 0-1.7898-1.4512-3.2415-3.24053-3.2415h-3.81785c-1.78933 0-3.24057 1.4517-3.24057 3.2415 0 1.7876 1.45124 3.2416 3.24057 3.2416z" fill="#06f" fill-rule="evenodd"/></svg>